<svg width="22" height="18" viewBox="0 0 22 18" fill="none" xmlns="http://www.w3.org/2000/svg">
<g id="&#235;&#140;&#147;&#234;&#184;&#128;_">
<path id="Vector 37" d="M1.04388 15.707C0.939117 16.0489 1.02488 16.4207 1.26882 16.6822C1.51276 16.9436 1.87773 17.0549 2.22606 16.9741L6.27379 16.0348C8.41857 16.5648 11.5985 16.9145 14.4698 16.2603C15.9714 15.9182 17.4382 15.29 18.6191 14.2202C19.8138 13.1381 20.6628 11.6511 20.9833 9.6985C20.9903 9.65608 20.9945 9.61325 20.9959 9.57029C21.05 7.96896 20.5716 5.63353 18.9211 3.78642C17.228 1.89162 14.4373 0.660643 10.1851 1.08355C5.88326 1.5114 3.51208 3.47639 2.44088 5.92223C1.47055 8.13776 1.64008 10.5821 2.09903 12.2636L1.04388 15.707Z" fill="white" stroke="#8E8E8E" stroke-width="2" stroke-linecap="round" stroke-linejoin="round"/>
</g>
</svg>
