<svg width="28" height="25" viewBox="0 0 28 25" fill="none" xmlns="http://www.w3.org/2000/svg">
<g id="&#236;&#185;&#180;&#235;&#169;&#148;&#235;&#157;&#188; &#236;&#149;&#132;&#236;&#157;&#180;&#236;&#189;&#152;">
<path id="&#236;&#185;&#180;&#235;&#169;&#148;&#235;&#157;&#188; &#236;&#149;&#132;&#236;&#157;&#180;&#236;&#189;&#152;_2" d="M13.8889 20.1389C15.625 20.1389 17.1009 19.5315 18.3167 18.3167C19.5315 17.1009 20.1389 15.625 20.1389 13.8889C20.1389 12.1528 19.5315 10.6769 18.3167 9.46111C17.1009 8.2463 15.625 7.63889 13.8889 7.63889C12.1528 7.63889 10.6769 8.2463 9.46111 9.46111C8.2463 10.6769 7.63889 12.1528 7.63889 13.8889C7.63889 15.625 8.2463 17.1009 9.46111 18.3167C10.6769 19.5315 12.1528 20.1389 13.8889 20.1389ZM13.8889 17.3611C12.9167 17.3611 12.0949 17.0255 11.4236 16.3542C10.7523 15.6829 10.4167 14.8611 10.4167 13.8889C10.4167 12.9167 10.7523 12.0949 11.4236 11.4236C12.0949 10.7523 12.9167 10.4167 13.8889 10.4167C14.8611 10.4167 15.6829 10.7523 16.3542 11.4236C17.0255 12.0949 17.3611 12.9167 17.3611 13.8889C17.3611 14.8611 17.0255 15.6829 16.3542 16.3542C15.6829 17.0255 14.8611 17.3611 13.8889 17.3611ZM2.77778 25C2.01389 25 1.36019 24.7282 0.816667 24.1847C0.272222 23.6403 0 22.9861 0 22.2222V5.55556C0 4.79167 0.272222 4.13796 0.816667 3.59444C1.36019 3.05 2.01389 2.77778 2.77778 2.77778H7.15278L9.72222 0H18.0556L20.625 2.77778H25C25.7639 2.77778 26.4181 3.05 26.9625 3.59444C27.506 4.13796 27.7778 4.79167 27.7778 5.55556V22.2222C27.7778 22.9861 27.506 23.6403 26.9625 24.1847C26.4181 24.7282 25.7639 25 25 25H2.77778ZM25 22.2222V5.55556H19.375L16.8403 2.77778H10.9375L8.40278 5.55556H2.77778V22.2222H25Z" fill="#5B5B5B"/>
</g>
</svg>
