<svg width="328" height="30" viewBox="0 0 328 30" fill="none" xmlns="http://www.w3.org/2000/svg">
<path d="M15 15L313 15" stroke="#EBECEB" stroke-width="12"/>
<circle cx="15" cy="15" r="15" fill="#EBECEB"/>
<circle cx="313" cy="15" r="15" fill="#EBECEB"/>
<circle cx="164" cy="15" r="15" fill="#EBECEB"/>
<path d="M309.934 16.12C309.566 16.168 309.162 16.208 308.722 16.24C308.282 16.272 307.778 16.3 307.21 16.324C306.65 16.348 306.014 16.368 305.302 16.384C304.59 16.392 303.778 16.396 302.866 16.396V15.652C303.45 15.652 303.982 15.652 304.462 15.652C304.95 15.652 305.402 15.648 305.818 15.64V14.308C305.482 14.276 305.174 14.204 304.894 14.092C304.622 13.98 304.386 13.84 304.186 13.672C303.986 13.496 303.83 13.3 303.718 13.084C303.614 12.868 303.562 12.632 303.562 12.376V11.872C303.562 11.6 303.626 11.344 303.754 11.104C303.89 10.864 304.074 10.66 304.306 10.492C304.546 10.316 304.83 10.18 305.158 10.084C305.486 9.98 305.846 9.928 306.238 9.928C306.63 9.928 306.99 9.98 307.318 10.084C307.646 10.18 307.926 10.316 308.158 10.492C308.398 10.66 308.582 10.864 308.71 11.104C308.846 11.344 308.914 11.6 308.914 11.872V12.376C308.914 12.632 308.858 12.868 308.746 13.084C308.642 13.3 308.49 13.496 308.29 13.672C308.09 13.84 307.85 13.98 307.57 14.092C307.298 14.204 306.994 14.276 306.658 14.308V15.616C307.338 15.6 307.93 15.576 308.434 15.544C308.938 15.504 309.414 15.46 309.862 15.412L309.934 16.12ZM306.238 10.648C305.966 10.648 305.714 10.684 305.482 10.756C305.25 10.828 305.05 10.924 304.882 11.044C304.714 11.164 304.582 11.304 304.486 11.464C304.398 11.616 304.354 11.776 304.354 11.944V12.304C304.354 12.472 304.398 12.636 304.486 12.796C304.582 12.948 304.714 13.084 304.882 13.204C305.05 13.324 305.25 13.42 305.482 13.492C305.714 13.564 305.966 13.6 306.238 13.6C306.51 13.6 306.762 13.564 306.994 13.492C307.226 13.42 307.426 13.324 307.594 13.204C307.762 13.084 307.89 12.948 307.978 12.796C308.074 12.636 308.122 12.472 308.122 12.304V11.944C308.122 11.776 308.074 11.616 307.978 11.464C307.89 11.304 307.762 11.164 307.594 11.044C307.426 10.924 307.226 10.828 306.994 10.756C306.762 10.684 306.51 10.648 306.238 10.648ZM311.542 13.264H313.186V14.02H311.542V17.872H310.702V9.664H311.542V13.264ZM305.602 19.756H311.842V20.5H304.75V17.488H305.602V19.756ZM319.848 16.384C320.296 16.384 320.72 16.432 321.12 16.528C321.528 16.616 321.884 16.748 322.188 16.924C322.492 17.1 322.732 17.316 322.908 17.572C323.084 17.82 323.172 18.1 323.172 18.412V18.88C323.172 19.192 323.084 19.472 322.908 19.72C322.732 19.976 322.492 20.192 322.188 20.368C321.884 20.544 321.528 20.68 321.12 20.776C320.72 20.872 320.296 20.92 319.848 20.92C319.4 20.92 318.972 20.872 318.564 20.776C318.164 20.68 317.812 20.544 317.508 20.368C317.204 20.192 316.964 19.976 316.788 19.72C316.612 19.472 316.524 19.192 316.524 18.88V18.412C316.524 18.092 316.612 17.808 316.788 17.56C316.964 17.304 317.204 17.088 317.508 16.912C317.812 16.736 318.164 16.604 318.564 16.516C318.972 16.428 319.4 16.384 319.848 16.384ZM319.848 20.2C320.168 20.2 320.476 20.168 320.772 20.104C321.076 20.048 321.344 19.96 321.576 19.84C321.816 19.728 322.004 19.588 322.14 19.42C322.284 19.26 322.356 19.072 322.356 18.856V18.448C322.356 18.232 322.284 18.044 322.14 17.884C322.004 17.716 321.816 17.576 321.576 17.464C321.344 17.344 321.076 17.256 320.772 17.2C320.476 17.136 320.168 17.104 319.848 17.104C319.528 17.104 319.216 17.136 318.912 17.2C318.616 17.256 318.348 17.344 318.108 17.464C317.876 17.576 317.688 17.716 317.544 17.884C317.408 18.044 317.34 18.232 317.34 18.448V18.856C317.34 19.072 317.408 19.26 317.544 19.42C317.688 19.588 317.876 19.728 318.108 19.84C318.348 19.96 318.616 20.048 318.912 20.104C319.216 20.168 319.528 20.2 319.848 20.2ZM317.388 13.312C317.372 13.416 317.276 13.56 317.1 13.744C316.932 13.92 316.716 14.136 316.452 14.392C316.244 14.592 315.976 14.832 315.648 15.112C315.328 15.384 315 15.652 314.664 15.916L314.136 15.304C314.464 15.064 314.8 14.8 315.144 14.512C315.496 14.216 315.808 13.932 316.08 13.66C316.272 13.468 316.42 13.3 316.524 13.156C316.636 13.012 316.72 12.872 316.776 12.736C316.84 12.592 316.88 12.44 316.896 12.28C316.912 12.112 316.92 11.916 316.92 11.692V10.156H317.784V11.668C317.784 11.892 317.792 12.084 317.808 12.244C317.824 12.396 317.86 12.54 317.916 12.676C317.98 12.812 318.068 12.952 318.18 13.096C318.3 13.232 318.46 13.388 318.66 13.564C318.956 13.82 319.256 14.072 319.56 14.32C319.864 14.56 320.148 14.776 320.412 14.968L319.908 15.556C319.588 15.316 319.296 15.092 319.032 14.884C318.776 14.668 318.544 14.472 318.336 14.296C317.768 13.816 317.456 13.488 317.4 13.312H317.388ZM322.272 12.136V9.664H323.112V16.132H322.272V12.88H319.8V12.136H322.272Z" fill="#5B5B5B"/>
</svg>
