<svg width="121" height="28" viewBox="0 0 121 28" fill="none" xmlns="http://www.w3.org/2000/svg">
<g clip-path="url(#clip0_335_880)">
<path d="M22.2948 9.11324L22.4005 8.81054C22.6258 8.13175 21.8166 7.48048 21.2005 7.87491L20.0143 8.57205C16.7498 10.4295 12.1888 10.3791 9.24624 7.93912C9.21865 7.96664 8.76347 8.51242 8.73129 8.50784C8.30829 8.88392 7.71058 8.27852 8.083 7.85657L9.89913 5.76975C10.2991 5.31111 11.0026 5.91652 10.6026 6.37974L9.81177 7.29244C10.7451 7.90702 11.7244 8.43445 12.8003 8.68212L13.8118 4.79285C14.267 3.04084 13.2141 1.25214 11.4532 0.79809C9.69682 0.344036 7.90369 1.39432 7.44851 3.15092L5.25536 11.5899C5.00708 12.5439 5.43008 13.507 6.23929 14.0666C6.24389 14.0666 6.24848 14.0711 6.25308 14.0757C11.2923 17.6806 18.3637 17.7403 23.5959 14.4151C23.5959 14.4151 24.2304 14.0482 24.7132 13.7455C25.1224 13.4887 25.2741 12.9337 24.9799 12.5485C25.1316 12.4797 25.4948 12.365 25.619 12.2503C26.0971 11.8972 25.9822 11.0625 25.4213 10.8607C26.1201 10.2874 25.4488 9.14535 24.6029 9.47557C24.9431 8.78761 24.1017 8.01709 23.4396 8.43445L22.304 9.11783L22.2948 9.11324Z" fill="#EEC749"/>
<path d="M26.1708 22.3588C27.6604 21.5791 29.0582 20.6618 30.341 19.6024C30.5387 19.4372 30.8329 19.4648 30.9984 19.662C31.1594 19.8592 31.1318 20.1527 30.9387 20.3178C29.5777 21.4415 28.1064 22.4138 26.5478 23.2256C26.8007 23.8127 27.334 25.0372 27.5869 25.6151C29.7938 30.3758 36.8238 27.3029 34.8744 22.4826L26.18 2.39416C23.8213 -2.38487 16.989 0.655912 18.943 5.65968L19.789 7.61349C20.6442 7.08147 21.4029 6.41185 22.0144 5.5863L21.7201 5.39825C21.2006 5.08638 21.7155 4.28376 22.2167 4.60939L23.9041 5.66427C24.2995 5.89359 24.1018 6.54027 23.6558 6.52651C23.4627 6.55403 22.9661 6.15501 22.8006 6.07704C22.5523 6.44854 22.2443 6.77876 21.9362 7.09064C22.3592 7.18237 22.7316 7.45755 22.9431 7.84739L22.9615 7.8795C23.8029 7.27409 25.1087 7.74191 25.3156 8.77385C26.1202 8.97565 26.6076 9.92962 26.3133 10.7001C26.865 11.4019 26.6122 12.5118 25.8213 12.92C25.9041 13.9886 24.7914 14.4977 23.996 14.9655C21.2833 16.557 18.3729 17.5064 15.2004 17.5201C13.5682 17.5293 11.9314 17.3046 10.3636 16.8459C9.57735 16.6166 8.80951 16.3231 8.07387 15.9699C7.33822 15.6168 6.68534 15.149 5.98188 14.7408C5.9221 14.7041 5.85773 14.6674 5.79796 14.6353C5.43474 14.4381 4.97036 14.4426 4.66231 14.7178C4.45081 14.9105 4.32207 15.1902 4.37265 15.5021C4.17035 15.3186 3.79793 14.9701 3.55884 14.7499C2.91975 14.1354 1.79789 14.7683 2.00479 15.6305C1.145 15.0526 0.119695 16.1671 0.75419 16.9743C-0.0504228 17.089 -0.28491 18.231 0.395563 18.6667L0.772581 18.9236C0.165673 19.318 0.27602 20.2353 0.905917 20.5517C2.33123 21.4002 3.71976 22.3037 5.23703 22.9779C6.66235 23.6109 8.14743 24.1016 9.6693 24.4502C12.7084 25.1427 15.8855 25.2482 18.966 24.7575C21.4902 24.3539 23.8995 23.5329 26.1616 22.3542L26.1708 22.3588Z" fill="#E8384A"/>
<path d="M47.4676 8.71886L54.2999 20.7261L51.6746 22.5973L47.4676 15.1031L43.2376 22.5973L40.6123 20.7261L47.4676 8.71886ZM58.8931 23.455H55.5689V6.39355H58.8931V23.455Z" fill="#E8384A"/>
<path d="M65.9877 20.1161H73.6339V23.0514H62.7969V9.93885H65.9877V20.1161ZM79.2018 23.455H75.9006V6.39355H79.2018V23.455Z" fill="#EEC749"/>
<path d="M86.3002 20.1161H93.9464V23.0514H83.1094V9.93885H86.3002V20.1161ZM98.9442 13.2319H102.181V16.2314H98.9442V23.455H95.643V6.39355H98.9442V13.2319Z" fill="#E8384A"/>
<path d="M118.917 20.1161V27.2938H106.269V20.1161H110.931V18.6255H104.145V15.8278H121V18.6255H114.237V20.1161H118.922H118.917ZM118.986 14.3602H106.361V6.52661H109.552V11.3561H118.986V14.3602ZM115.588 22.6891H109.57V24.7438H115.588V22.6891Z" fill="#EEC749"/>
</g>
<defs>
<clipPath id="clip0_335_880">
<rect width="121" height="28" fill="white"/>
</clipPath>
</defs>
</svg>
