<svg width="31" height="29" viewBox="0 0 31 29" fill="none" xmlns="http://www.w3.org/2000/svg">
<path d="M15.5 0C6.93963 0 2.59486e-05 6.49187 2.59486e-05 14.5C2.59486e-05 17.0123 0.684067 19.3783 1.88806 21.4407L0.049729 27.4596C-0.0818918 27.8908 0.0523128 28.3545 0.398402 28.6646C0.744517 28.9744 1.24561 29.0798 1.70017 28.9379L7.74013 27.0546C10.023 28.2919 12.6748 29 15.5 29C24.0604 29 31 22.5081 31 14.5C31 6.49187 24.0604 0 15.5 0ZM10.3333 12.0833C10.3333 11.416 10.9116 10.875 11.625 10.875H19.375C20.0884 10.875 20.6667 11.416 20.6667 12.0833C20.6667 12.7507 20.0884 13.2917 19.375 13.2917H11.625C10.9116 13.2917 10.3333 12.7507 10.3333 12.0833ZM11.625 15.7083H16.7917C17.505 15.7083 18.0833 16.2493 18.0833 16.9167C18.0833 17.584 17.505 18.125 16.7917 18.125H11.625C10.9116 18.125 10.3333 17.584 10.3333 16.9167C10.3333 16.2493 10.9116 15.7083 11.625 15.7083Z" fill="#8E8E8E"/>
</svg>
