<svg width="31" height="29" viewBox="0 0 31 29" fill="none" xmlns="http://www.w3.org/2000/svg">
<path d="M2.60532 21.6597L2.70117 21.3459L2.53574 21.0625C1.39588 19.11 0.75 16.8738 0.75 14.5C0.75 6.95241 7.30594 0.75 15.5 0.75C23.694 0.75 30.25 6.95241 30.25 14.5C30.25 22.0476 23.694 28.25 15.5 28.25C12.8009 28.25 10.2718 27.5737 8.09749 26.3952L7.81912 26.2443L7.51685 26.3386L1.47689 28.2219L1.47671 28.2219C1.26685 28.2874 1.04245 28.2344 0.898831 28.106C0.76162 27.983 0.724007 27.8195 0.76702 27.6786L2.60532 21.6597ZM11.625 9.25C10.5453 9.25 9.58331 10.0805 9.58331 11.2083C9.58331 12.3362 10.5453 13.1667 11.625 13.1667H19.375C20.4547 13.1667 21.4166 12.3362 21.4166 11.2083C21.4166 10.0805 20.4547 9.25 19.375 9.25H11.625ZM16.7916 15.3333H11.625C10.5453 15.3333 9.58331 16.1638 9.58331 17.2917C9.58331 18.4195 10.5453 19.25 11.625 19.25H16.7916C17.8713 19.25 18.8333 18.4195 18.8333 17.2917C18.8333 16.1638 17.8713 15.3333 16.7916 15.3333Z" fill="#FFEBB2" stroke="#FFAA0E" stroke-width="1.5"/>
</svg>
