<svg width="34" height="32" viewBox="0 0 34 32" fill="none" xmlns="http://www.w3.org/2000/svg">
<path d="M24.8937 3.25408L25.5 4.08685L26.1063 3.25408C26.7466 2.37469 27.8144 1.59211 29.325 1.59211C31.5534 1.59211 33.25 3.40271 33.25 5.47368C33.25 6.75831 32.5123 7.95052 31.1054 9.34252C30.2275 10.2112 29.1768 11.0786 28.0018 12.0486C27.2721 12.651 26.4945 13.2931 25.6805 13.9995C25.5778 14.0887 25.4222 14.0887 25.3195 13.9995C24.5055 13.2931 23.7279 12.651 22.9982 12.0486C21.8232 11.0786 20.7725 10.2112 19.8946 9.34252C18.4877 7.95052 17.75 6.75831 17.75 5.47368C17.75 3.40271 19.4466 1.59211 21.675 1.59211C23.1856 1.59211 24.2534 2.37469 24.8937 3.25408ZM2.484 25.2632C2.484 21.9618 5.1846 19.2763 8.534 19.2763C11.8834 19.2763 14.584 21.9618 14.584 25.2632C14.584 28.5645 11.8834 31.25 8.534 31.25C5.1846 31.25 2.484 28.5645 2.484 25.2632ZM19.45 31V19.5263C19.45 19.3882 19.5619 19.2763 19.7 19.2763H31.3C31.4381 19.2763 31.55 19.3882 31.55 19.5263V31C31.55 31.1381 31.4381 31.25 31.3 31.25H19.7C19.5619 31.25 19.45 31.1381 19.45 31ZM1.48921 14.0356L8.28194 1.92225C8.37744 1.75195 8.62256 1.75195 8.71806 1.92225L15.5108 14.0356C15.6042 14.2023 15.4838 14.4079 15.2927 14.4079H1.70726C1.5162 14.4079 1.39576 14.2023 1.48921 14.0356Z" fill="#FFEBB2" stroke="#FFAA0E" stroke-width="1.5"/>
</svg>
