<svg width="34" height="32" viewBox="0 0 34 32" fill="none" xmlns="http://www.w3.org/2000/svg">
<path d="M8.534 18.5263C4.777 18.5263 1.734 21.5411 1.734 25.2632C1.734 28.9853 4.777 32 8.534 32C12.291 32 15.334 28.9853 15.334 25.2632C15.334 21.5411 12.291 18.5263 8.534 18.5263ZM18.7 18.5263V32H32.3V18.5263H18.7ZM8.5 0L0 15.1579H17L8.5 0ZM29.325 0.842105C27.523 0.842105 26.248 1.78526 25.5 2.81263C24.752 1.78526 23.477 0.842105 21.675 0.842105C19.023 0.842105 17 2.99789 17 5.47368C17 8.84211 21.114 11.2337 25.5 15.1579C29.886 11.2337 34 8.84211 34 5.47368C34 2.99789 31.977 0.842105 29.325 0.842105Z" fill="#8E8E8E"/>
</svg>
