<svg width="30" height="33" viewBox="0 0 30 33" fill="none" xmlns="http://www.w3.org/2000/svg">
<path d="M1.06988 10.836L1.07051 10.8348C1.28339 10.408 1.57317 10.0639 1.94352 9.7923L1.94355 9.79234L1.95 9.7875L13.1954 1.35344C13.4803 1.14689 13.77 0.997433 14.0653 0.899012C14.3617 0.80021 14.6721 0.75 15 0.75C15.3279 0.75 15.6383 0.80021 15.9347 0.899012C16.23 0.997436 16.5198 1.1469 16.8046 1.35346L28.05 9.7875L28.05 9.78753L28.0565 9.7923C28.427 10.064 28.7175 10.4083 28.9317 10.8354C29.1446 11.2625 29.25 11.7102 29.25 12.1875V29.0625C29.25 29.8933 28.9632 30.5861 28.369 31.1815C27.7736 31.7757 27.0808 32.0625 26.25 32.0625H19.5V19.6875V18.9375H18.75H11.25H10.5V19.6875V32.0625H3.75C2.91905 32.0625 2.22691 31.7756 1.63283 31.1815C1.03722 30.5859 0.75 29.8931 0.75 29.0625V12.1875C0.75 11.7105 0.85586 11.2631 1.06988 10.836Z" fill="#FFEDF0" stroke="#FF314A" stroke-width="1.5"/>
</svg>
