<svg width="30" height="33" viewBox="0 0 30 33" fill="none" xmlns="http://www.w3.org/2000/svg">
<path d="M1.29338 10.9481L1.29422 10.9464C1.48973 10.5544 1.7538 10.2414 2.09136 9.9939L2.0914 9.99395L2.1 9.9875L13.3438 1.55468C13.609 1.36259 13.8756 1.22577 14.1444 1.13618C14.4146 1.04611 14.6982 1 15 1C15.3018 1 15.5854 1.04611 15.8556 1.13618C16.1244 1.22578 16.391 1.3626 16.6563 1.5547L27.9 9.9875L27.9 9.98755L27.9086 9.9939C28.2464 10.2416 28.5113 10.5549 28.7081 10.9474C28.9037 11.3397 29 11.749 29 12.1875V29.0625C29 29.8264 28.7399 30.4559 28.1923 31.0048C27.6434 31.5524 27.0139 31.8125 26.25 31.8125H19.75V19.6875V18.6875H18.75H11.25H10.25V19.6875V31.8125H3.75C2.98582 31.8125 2.35714 31.5523 1.80961 31.0048C1.26047 30.4556 1 29.8262 1 29.0625V12.1875C1 11.7494 1.09677 11.3403 1.29338 10.9481Z" fill="#8E8E8E" stroke="#8E8E8E" stroke-width="2"/>
</svg>
