<svg width="35" height="33" viewBox="0 0 35 33" fill="none" xmlns="http://www.w3.org/2000/svg">
<path d="M12.272 13.9465C15.887 13.9465 18.8175 10.8245 18.8175 6.97326C18.8175 3.12204 15.887 0 12.272 0C8.65706 0 5.72656 3.12204 5.72656 6.97326C5.72656 10.8245 8.65706 13.9465 12.272 13.9465Z" fill="#FF314A"/>
<path d="M12.8902 16.5719C8.67581 16.3683 0 19.1366 0 24.6936V28.7646H14.7273C10.9142 23.1466 12.8285 16.7754 12.8902 16.5719Z" fill="#FF314A"/>
<path d="M29.5268 24.6207C30.2043 23.4379 30.5995 22.0546 30.5995 20.571C30.5995 16.1404 27.231 12.5518 23.0722 12.5518C18.9134 12.5518 15.5449 16.1404 15.5449 20.571C15.5449 25.0016 18.9134 28.5903 23.0722 28.5903C24.4647 28.5903 25.7632 28.1492 26.8735 27.4475L31.7097 32.5999L34.3631 29.7731L29.5268 24.6207ZM23.0722 24.5806C21.0022 24.5806 19.3086 22.7763 19.3086 20.571C19.3086 18.3657 21.0022 16.5614 23.0722 16.5614C25.1422 16.5614 26.8358 18.3657 26.8358 20.571C26.8358 22.7763 25.1422 24.5806 23.0722 24.5806Z" fill="#FF314A"/>
</svg>
