<svg width="35" height="33" viewBox="0 0 35 33" fill="none" xmlns="http://www.w3.org/2000/svg">
<path d="M12.2725 13.9465C15.8875 13.9465 18.818 10.8245 18.818 6.97326C18.818 3.12204 15.8875 0 12.2725 0C8.65755 0 5.72705 3.12204 5.72705 6.97326C5.72705 10.8245 8.65755 13.9465 12.2725 13.9465Z" fill="#8E8E8E"/>
<path d="M12.8902 16.572C8.67581 16.3684 0 19.1367 0 24.6937V28.7647H14.7273C10.9142 23.1467 12.8285 16.7755 12.8902 16.572Z" fill="#8E8E8E"/>
<path d="M29.5273 24.6207C30.2048 23.4379 30.6 22.0546 30.6 20.571C30.6 16.1404 27.2315 12.5518 23.0727 12.5518C18.9139 12.5518 15.5454 16.1404 15.5454 20.571C15.5454 25.0016 18.9139 28.5903 23.0727 28.5903C24.4652 28.5903 25.7637 28.1492 26.874 27.4475L31.7102 32.5999L34.3636 29.7731L29.5273 24.6207ZM23.0727 24.5806C21.0027 24.5806 19.309 22.7763 19.309 20.571C19.309 18.3657 21.0027 16.5614 23.0727 16.5614C25.1427 16.5614 26.8363 18.3657 26.8363 20.571C26.8363 22.7763 25.1427 24.5806 23.0727 24.5806Z" fill="#8E8E8E"/>
</svg>
