<svg width="32" height="32" viewBox="0 0 32 32" fill="none" xmlns="http://www.w3.org/2000/svg">
<path d="M23.25 8C23.25 12.0058 20.0058 15.25 16 15.25C11.9942 15.25 8.75 12.0058 8.75 8C8.75 3.99421 11.9942 0.75 16 0.75C20.0058 0.75 23.25 3.99421 23.25 8ZM0.75 28C0.75 26.9455 1.27231 25.9663 2.25773 25.0568C3.24826 24.1426 4.65593 23.3504 6.2764 22.7012C9.51856 21.4024 13.4238 20.75 16 20.75C18.5762 20.75 22.4814 21.4024 25.7236 22.7012C27.3441 23.3504 28.7517 24.1426 29.7423 25.0568C30.7277 25.9663 31.25 26.9455 31.25 28V31.25H0.75V28Z" fill="#FFAA0E" stroke="#FFAA0E" stroke-width="1.5"/>
</svg>
