<svg width="34" height="34" viewBox="0 0 34 34" fill="none" xmlns="http://www.w3.org/2000/svg">
<path fill-rule="evenodd" clip-rule="evenodd" d="M4.73381 25.6358C7.09194 22.7348 13.653 20.8636 17.0003 20.8636C20.7482 20.8636 27.0211 22.7219 29.2874 25.6057C30.9967 23.1696 32 20.202 32 17C32 8.71573 25.2843 2 17 2C8.71573 2 2 8.71573 2 17C2 20.2152 3.01157 23.1941 4.73381 25.6358ZM3.86392 27.7917C1.4496 24.8563 0 21.0974 0 17C0 7.61116 7.61116 0 17 0C26.3888 0 34 7.61116 34 17C34 21.0972 32.5506 24.8558 30.1365 27.7912C30.1366 27.8001 30.1366 27.8091 30.1366 27.8181L30.0985 27.8372C26.9803 31.6018 22.2702 34 17 34C11.7296 34 7.01941 31.6017 3.90121 27.8368L3.8638 27.8181C3.8638 27.8093 3.86384 27.8005 3.86392 27.7917ZM23.1821 11.5909C23.1821 15.0063 20.4157 17.7727 17.0003 17.7727C13.5848 17.7727 10.8184 15.0063 10.8184 11.5909C10.8184 8.17542 13.5848 5.40905 17.0003 5.40905C20.4157 5.40905 23.1821 8.17542 23.1821 11.5909Z" fill="#8E8E8E"/>
</svg>
