<svg width="40" height="40" viewBox="0 0 40 40" fill="none" xmlns="http://www.w3.org/2000/svg">
<rect width="40" height="40" rx="20" fill="#D9D9D9"/>
<path d="M20 25.5C21.25 25.5 22.3127 25.0627 23.188 24.188C24.0627 23.3127 24.5 22.25 24.5 21C24.5 19.75 24.0627 18.6873 23.188 17.812C22.3127 16.9373 21.25 16.5 20 16.5C18.75 16.5 17.6873 16.9373 16.812 17.812C15.9373 18.6873 15.5 19.75 15.5 21C15.5 22.25 15.9373 23.3127 16.812 24.188C17.6873 25.0627 18.75 25.5 20 25.5ZM20 23.5C19.3 23.5 18.7083 23.2583 18.225 22.775C17.7417 22.2917 17.5 21.7 17.5 21C17.5 20.3 17.7417 19.7083 18.225 19.225C18.7083 18.7417 19.3 18.5 20 18.5C20.7 18.5 21.2917 18.7417 21.775 19.225C22.2583 19.7083 22.5 20.3 22.5 21C22.5 21.7 22.2583 22.2917 21.775 22.775C21.2917 23.2583 20.7 23.5 20 23.5ZM12 29C11.45 29 10.9793 28.8043 10.588 28.413C10.196 28.021 10 27.55 10 27V15C10 14.45 10.196 13.9793 10.588 13.588C10.9793 13.196 11.45 13 12 13H15.15L17 11H23L24.85 13H28C28.55 13 29.021 13.196 29.413 13.588C29.8043 13.9793 30 14.45 30 15V27C30 27.55 29.8043 28.021 29.413 28.413C29.021 28.8043 28.55 29 28 29H12ZM28 27V15H23.95L22.125 13H17.875L16.05 15H12V27H28Z" fill="#5B5B5B"/>
</svg>
