<svg width="42" height="42" viewBox="0 0 42 42" fill="none" xmlns="http://www.w3.org/2000/svg">
<circle cx="21" cy="21" r="21" fill="white"/>
<path d="M26.9545 13.8182V29.5C26.9545 32.5136 24.5136 34.9545 21.5 34.9545C18.4864 34.9545 16.0455 32.5136 16.0455 29.5V12.4545C16.0455 10.5727 17.5727 9.04545 19.4545 9.04545C21.3364 9.04545 22.8636 10.5727 22.8636 12.4545V26.7727C22.8636 27.5227 22.25 28.1364 21.5 28.1364C20.75 28.1364 20.1364 27.5227 20.1364 26.7727V13.8182H18.0909V26.7727C18.0909 28.6545 19.6182 30.1818 21.5 30.1818C23.3818 30.1818 24.9091 28.6545 24.9091 26.7727V12.4545C24.9091 9.44091 22.4682 7 19.4545 7C16.4409 7 14 9.44091 14 12.4545V29.5C14 33.6455 17.3545 37 21.5 37C25.6455 37 29 33.6455 29 29.5V13.8182H26.9545Z" fill="#8E8E8E"/>
</svg>
