<svg width="24" height="19" viewBox="0 0 24 19" fill="none" xmlns="http://www.w3.org/2000/svg">
<path d="M1 4.56006H23M1 14.0601H23" stroke="black" stroke-width="2" stroke-linecap="round"/>
<path d="M10.621 14.4399C10.621 16.4077 9.02915 17.9999 7.0693 17.9999C5.10945 17.9999 3.51758 16.4077 3.51758 14.4399C3.51758 12.472 5.10945 10.8799 7.0693 10.8799C9.02915 10.8799 10.621 12.472 10.621 14.4399Z" fill="white" stroke="black" stroke-width="2"/>
<path d="M21.2411 4.56C21.2411 6.52785 19.6493 8.12 17.6894 8.12C15.7296 8.12 14.1377 6.52785 14.1377 4.56C14.1377 2.59215 15.7296 1 17.6894 1C19.6493 1 21.2411 2.59215 21.2411 4.56Z" fill="white" stroke="black" stroke-width="2"/>
</svg>
