<svg width="30" height="36" viewBox="0 0 30 36" fill="none" xmlns="http://www.w3.org/2000/svg">
<g id="&#235;&#166;&#172;&#235;&#183;&#176;_">
<rect id="Rectangle 345" x="1.5" y="2.1001" width="27" height="31.8" rx="3.5" fill="white" stroke="#FF314A" stroke-width="3"/>
<path id="Vector 26" d="M10.2002 3.6001H19.8002" stroke="#FF314A" stroke-width="3" stroke-linecap="round"/>
<path id="Vector 27" d="M15 14.3999H22.2" stroke="#FF314A" stroke-width="3" stroke-linecap="round"/>
<path id="Vector 28" d="M15 20.3999H22.2" stroke="#FF314A" stroke-width="3" stroke-linecap="round"/>
<path id="Ellipse 54" d="M10.8996 14.4C10.8996 15.4493 10.049 16.3 8.99961 16.3C7.95027 16.3 7.09961 15.4493 7.09961 14.4C7.09961 13.3507 7.95027 12.5 8.99961 12.5C10.049 12.5 10.8996 13.3507 10.8996 14.4Z" fill="#FF314A" stroke="#FF314A"/>
<path id="Ellipse 55" d="M10.8996 20.4C10.8996 21.4493 10.0489 22.3 8.99961 22.3C7.95027 22.3 7.09961 21.4493 7.09961 20.4C7.09961 19.3507 7.95027 18.5 8.99961 18.5C10.0489 18.5 10.8996 19.3507 10.8996 20.4Z" fill="#FF314A" stroke="#FF314A"/>
</g>
</svg>
