<svg width="32" height="32" viewBox="0 0 32 32" fill="none" xmlns="http://www.w3.org/2000/svg">
<g id="&#236;&#136;&#152;&#236;&#160;&#149;2_">
<g id="&#236;&#136;&#152;&#236;&#160;&#149;2__2">
<mask id="path-1-inside-1_332_874" fill="white">
<path d="M0 32V24.8889L18.963 5.92593L26.0741 13.037L7.11111 32H0Z"/>
<path d="M28.4444 10.6667L21.3333 3.55556L24.8889 0C25.679 0 27.7333 0.474074 29.6296 2.37037C31.5259 4.26667 32 6.32099 32 7.11111L28.4444 10.6667Z"/>
</mask>
<path d="M28.1109 11.0002C30.2588 13.1481 33.7412 13.1481 35.8891 11.0002C38.037 8.85231 38.037 5.36991 35.8891 3.22202L28.1109 11.0002ZM28.778 -3.88909C26.6301 -6.03697 23.1477 -6.03697 20.9998 -3.88909C18.8519 -1.7412 18.8519 1.7412 20.9998 3.88909L28.778 -3.88909ZM35.8891 3.22202L28.778 -3.88909L20.9998 3.88909L28.1109 11.0002L35.8891 3.22202ZM0 24.8889L-7.77817 17.1107C-9.84107 19.1736 -11 21.9715 -11 24.8889H0ZM0 32H-11C-11 38.0751 -6.07513 43 0 43L0 32ZM7.11111 32V43C10.0285 43 12.8264 41.8411 14.8893 39.7782L7.11111 32ZM26.0741 13.037L33.8522 20.8152C38.148 16.5194 38.148 9.55463 33.8522 5.25886L26.0741 13.037ZM18.963 5.92593L26.7411 -1.85225C22.4454 -6.14802 15.4806 -6.14802 11.1848 -1.85225L18.963 5.92593ZM21.3333 3.55556L13.5552 -4.22262C9.25939 0.0731483 9.25939 7.03796 13.5552 11.3337L21.3333 3.55556ZM28.4444 10.6667L20.6663 18.4448C22.7292 20.5077 25.5271 21.6667 28.4444 21.6667C31.3618 21.6667 34.1597 20.5077 36.2226 18.4448L28.4444 10.6667ZM32 7.11111L39.7782 14.8893C41.8411 12.8264 43 10.0285 43 7.11111H32ZM24.8889 0V-11C21.9715 -11 19.1736 -9.84107 17.1107 -7.77817L24.8889 0ZM29.6296 2.37037L21.8515 10.1485L21.8515 10.1485L29.6296 2.37037ZM-11 24.8889V32H11V24.8889H-11ZM0 43H7.11111V21H0V43ZM14.8893 39.7782L33.8522 20.8152L18.2959 5.25886L-0.667064 24.2218L14.8893 39.7782ZM33.8522 5.25886L26.7411 -1.85225L11.1848 13.7041L18.2959 20.8152L33.8522 5.25886ZM11.1848 -1.85225L-7.77817 17.1107L7.77817 32.6671L26.7411 13.7041L11.1848 -1.85225ZM13.5552 11.3337L20.6663 18.4448L36.2226 2.88849L29.1115 -4.22262L13.5552 11.3337ZM36.2226 18.4448L39.7782 14.8893L24.2218 -0.667063L20.6663 2.88849L36.2226 18.4448ZM17.1107 -7.77817L13.5552 -4.22262L29.1115 11.3337L32.6671 7.77817L17.1107 -7.77817ZM43 7.11111C43 3.34447 41.3248 -1.49081 37.4078 -5.40781L21.8515 10.1485C21.7075 10.0046 21.5303 9.76423 21.3791 9.40307C21.3059 9.22835 21.2262 8.99572 21.1582 8.68994C21.1025 8.43905 21 7.89736 21 7.11111H43ZM37.4078 -5.4078C33.4908 -9.3248 28.6555 -11 24.8889 -11V11C24.1026 11 23.5609 10.8975 23.3101 10.8418C23.0043 10.7738 22.7716 10.6941 22.5969 10.6209C22.2358 10.4697 21.9954 10.2925 21.8515 10.1485L37.4078 -5.4078Z" fill="#FFAD33" mask="url(#path-1-inside-1_332_874)"/>
</g>
</g>
</svg>
