<svg width="31" height="37" viewBox="0 0 31 37" fill="none" xmlns="http://www.w3.org/2000/svg">
<g id="&#235;&#166;&#172;&#235;&#183;&#176;_">
<rect id="Rectangle 345" x="1.5" y="2.27783" width="28" height="33.2222" rx="3.5" fill="white" stroke="#FFAA0E" stroke-width="3"/>
<path id="Vector 26" d="M10.5 3.77783H20.5" stroke="#FFAA0E" stroke-width="3" stroke-linecap="round"/>
<path id="Vector 27" d="M15.5 15.1111H23" stroke="#FFAA0E" stroke-width="3" stroke-linecap="round"/>
<path id="Vector 28" d="M15.5 21.4075H23" stroke="#FFAA0E" stroke-width="3" stroke-linecap="round"/>
<path id="Ellipse 54" d="M11.25 15.111C11.25 16.2293 10.3511 17.1296 9.25 17.1296C8.1489 17.1296 7.25 16.2293 7.25 15.111C7.25 13.9928 8.1489 13.0925 9.25 13.0925C10.3511 13.0925 11.25 13.9928 11.25 15.111Z" fill="#FFAA0E" stroke="#FFAA0E"/>
<path id="Ellipse 55" d="M11.25 21.4074C11.25 22.5257 10.3511 23.426 9.25 23.426C8.1489 23.426 7.25 22.5257 7.25 21.4074C7.25 20.2892 8.1489 19.3889 9.25 19.3889C10.3511 19.3889 11.25 20.2892 11.25 21.4074Z" fill="#FFAA0E" stroke="#FFAA0E"/>
</g>
</svg>
