<svg width="328" height="30" viewBox="0 0 328 30" fill="none" xmlns="http://www.w3.org/2000/svg">
<path d="M15 15L313 15" stroke="#EBECEB" stroke-width="12"/>
<circle cx="15" cy="15" r="15" fill="#EBECEB"/>
<circle cx="313" cy="15" r="15" fill="#EBECEB"/>
<circle cx="164" cy="15" r="15" fill="#EBECEB"/>
<circle cx="15" cy="15" r="10" fill="#FF314A"/>
<rect x="10.5" y="10.5" width="9" height="9" rx="4.5" fill="white" stroke="#F7F8F7"/>
<path d="M302.818 15.412C303.346 15.412 303.834 15.412 304.282 15.412C304.73 15.412 305.15 15.408 305.542 15.4V14.416C305.222 14.36 304.93 14.268 304.666 14.14C304.41 14.012 304.19 13.86 304.006 13.684C303.83 13.508 303.69 13.312 303.586 13.096C303.49 12.872 303.442 12.636 303.442 12.388V11.872C303.442 11.584 303.51 11.312 303.646 11.056C303.782 10.8 303.974 10.58 304.222 10.396C304.47 10.204 304.77 10.056 305.122 9.952C305.474 9.84 305.862 9.784 306.286 9.784C306.71 9.784 307.098 9.84 307.45 9.952C307.802 10.056 308.102 10.204 308.35 10.396C308.598 10.58 308.79 10.8 308.926 11.056C309.062 11.312 309.13 11.584 309.13 11.872V12.388C309.13 12.636 309.078 12.872 308.974 13.096C308.878 13.312 308.738 13.508 308.554 13.684C308.378 13.86 308.162 14.012 307.906 14.14C307.65 14.268 307.362 14.36 307.042 14.416V15.364C307.602 15.348 308.094 15.328 308.518 15.304C308.95 15.28 309.346 15.248 309.706 15.208L309.814 16.48C309.486 16.52 309.106 16.556 308.674 16.588C308.25 16.612 307.754 16.632 307.186 16.648C306.626 16.664 305.986 16.676 305.266 16.684C304.546 16.692 303.73 16.696 302.818 16.696V15.412ZM311.758 12.988H313.234V14.308H311.758V17.92H310.258V9.568H311.758V12.988ZM306.01 19.348H312.058V20.644H304.486V17.5H306.01V19.348ZM306.286 11.02C306.03 11.02 305.81 11.048 305.626 11.104C305.45 11.16 305.306 11.236 305.194 11.332C305.082 11.42 304.998 11.524 304.942 11.644C304.894 11.764 304.87 11.884 304.87 12.004V12.256C304.87 12.376 304.894 12.496 304.942 12.616C304.998 12.736 305.082 12.844 305.194 12.94C305.306 13.028 305.45 13.1 305.626 13.156C305.81 13.212 306.03 13.24 306.286 13.24C306.542 13.24 306.758 13.212 306.934 13.156C307.118 13.1 307.266 13.028 307.378 12.94C307.49 12.844 307.57 12.736 307.618 12.616C307.674 12.496 307.702 12.376 307.702 12.256V12.004C307.702 11.884 307.674 11.764 307.618 11.644C307.57 11.524 307.49 11.42 307.378 11.332C307.266 11.236 307.118 11.16 306.934 11.104C306.758 11.048 306.542 11.02 306.286 11.02ZM319.776 21.064C319.28 21.064 318.82 21.016 318.396 20.92C317.972 20.824 317.604 20.68 317.292 20.488C316.98 20.304 316.732 20.08 316.548 19.816C316.372 19.552 316.284 19.252 316.284 18.916V18.388C316.284 18.052 316.372 17.752 316.548 17.488C316.732 17.224 316.98 17 317.292 16.816C317.604 16.624 317.972 16.48 318.396 16.384C318.82 16.288 319.28 16.24 319.776 16.24C320.272 16.24 320.732 16.288 321.156 16.384C321.58 16.48 321.948 16.624 322.26 16.816C322.572 17 322.816 17.224 322.992 17.488C323.176 17.752 323.268 18.052 323.268 18.388V18.916C323.268 19.252 323.176 19.552 322.992 19.816C322.816 20.08 322.572 20.304 322.26 20.488C321.948 20.68 321.58 20.824 321.156 20.92C320.732 21.016 320.272 21.064 319.776 21.064ZM317.364 13.804C317.324 13.9 317.252 14.008 317.148 14.128C317.044 14.248 316.868 14.416 316.62 14.632C316.34 14.872 316.048 15.116 315.744 15.364C315.448 15.604 315.132 15.852 314.796 16.108L313.896 14.992C314.248 14.736 314.568 14.492 314.856 14.26C315.144 14.028 315.432 13.78 315.72 13.516C315.968 13.292 316.164 13.032 316.308 12.736C316.46 12.44 316.536 12.096 316.536 11.704V10.024H318.072V11.656C318.072 11.856 318.08 12.036 318.096 12.196C318.12 12.348 318.16 12.492 318.216 12.628C318.28 12.764 318.364 12.896 318.468 13.024C318.572 13.144 318.704 13.268 318.864 13.396C319.096 13.588 319.364 13.796 319.668 14.02C319.98 14.244 320.288 14.46 320.592 14.668L319.752 15.724C319.472 15.532 319.204 15.344 318.948 15.16C318.692 14.968 318.452 14.784 318.228 14.608C318.02 14.448 317.832 14.3 317.664 14.164C317.504 14.02 317.408 13.9 317.376 13.804H317.364ZM321.72 13.108H319.752V11.824H321.72V9.568H323.232V16.18H321.72V13.108ZM319.776 17.476C319.512 17.476 319.26 17.504 319.02 17.56C318.78 17.616 318.568 17.692 318.384 17.788C318.2 17.876 318.052 17.984 317.94 18.112C317.828 18.232 317.772 18.36 317.772 18.496V18.808C317.772 18.944 317.828 19.072 317.94 19.192C318.052 19.32 318.2 19.428 318.384 19.516C318.568 19.612 318.78 19.688 319.02 19.744C319.26 19.8 319.512 19.828 319.776 19.828C320.04 19.828 320.292 19.8 320.532 19.744C320.772 19.688 320.984 19.612 321.168 19.516C321.352 19.428 321.5 19.32 321.612 19.192C321.724 19.072 321.78 18.944 321.78 18.808V18.496C321.78 18.36 321.724 18.232 321.612 18.112C321.5 17.984 321.352 17.876 321.168 17.788C320.984 17.692 320.772 17.616 320.532 17.56C320.292 17.504 320.04 17.476 319.776 17.476Z" fill="#5B5B5B"/>
</svg>
