<svg width="28" height="28" viewBox="0 0 28 28" fill="none" xmlns="http://www.w3.org/2000/svg">
<g id="&#236;&#155;&#144;&#237;&#152;&#149; &#237;&#153;&#148;&#236;&#130;&#180;&#237;&#145;&#156; &#236;&#149;&#132;&#236;&#157;&#180;&#236;&#189;&#152;">
<path id="Vector" d="M23.3332 14C23.3332 19.145 19.1448 23.3334 13.9998 23.3334C8.85484 23.3334 4.6665 19.145 4.6665 14C4.6665 8.85504 8.85484 4.66671 13.9998 4.66671C19.1448 4.66671 23.3332 8.85504 23.3332 14ZM25.6665 14C25.6665 7.56004 20.4398 2.33337 13.9998 2.33337C7.55984 2.33337 2.33317 7.56004 2.33317 14C2.33317 20.44 7.55984 25.6667 13.9998 25.6667C20.4398 25.6667 25.6665 20.44 25.6665 14ZM10.4998 14L15.1665 9.33337L15.1665 18.6667L10.4998 14Z" fill="#414040"/>
</g>
</svg>
