<svg width="50" height="50" viewBox="0 0 50 50" fill="none" xmlns="http://www.w3.org/2000/svg">
<circle cx="25" cy="25" r="25" fill="#0A9DFD"/>
<path d="M21 23.5412H18.3333V25.8837H21V23.5412ZM26.3333 23.5412H23.6667V25.8837H26.3333V23.5412ZM31.6667 23.5412H29V25.8837H31.6667V23.5412ZM34.3333 15.3425H33V13H30.3333V15.3425H19.6667V13H17V15.3425H15.6667C14.1867 15.3425 13.0133 16.3966 13.0133 17.685L13 34.0824C13 35.3707 14.1867 36.4248 15.6667 36.4248H34.3333C35.8 36.4248 37 35.3707 37 34.0824V17.685C37 16.3966 35.8 15.3425 34.3333 15.3425ZM34.3333 34.0824H15.6667V21.1987H34.3333V34.0824Z" fill="white"/>
</svg>
